PathFileType	4	(X/Y/Z)	 s07c0202.trc
DataRate	CameraRate	NumFrames	NumMarkers	Units	OrigDataRate	OrigDataStartFrame	OrigNumFrames
200	200	4	48	mm	200	1251	2000
Frame#	Time	racr			lacr			c7			jug			rlel			rdr			llel			ldr			s2			lic			ric			lasi			rasi			rpsi			lpsi			rgt			lgt			rth1			rth2			rth3			rth4			rlfc			rmfc			rsh1			rsh2			rsh3			rsh4			rlmal			rcal			rtoe			rmt5			lth1			lth2			lth4			lth3			llfc			lmfc			lsh1			lsh2			lsh3			lsh4			llmal			lcal			ltoe			lmt5			SBIKE			LBIKE			RBIKE			
		X1	Y1	Z1	X2	Y2	Z2	X3	Y3	Z3	X4	Y4	Z4	X5	Y5	Z5	X6	Y6	Z6	X7	Y7	Z7	X8	Y8	Z8	X9	Y9	Z9	X10	Y10	Z10	X11	Y11	Z11	X12	Y12	Z12	X13	Y13	Z13	X14	Y14	Z14	X15	Y15	Z15	X16	Y16	Z16	X17	Y17	Z17	X18	Y18	Z18	X19	Y19	Z19	X20	Y20	Z20	X21	Y21	Z21	X22	Y22	Z22	X23	Y23	Z23	X24	Y24	Z24	X25	Y25	Z25	X26	Y26	Z26	X27	Y27	Z27	X28	Y28	Z28	X29	Y29	Z29	X30	Y30	Z30	X31	Y31	Z31	X32	Y32	Z32	X33	Y33	Z33	X34	Y34	Z34	X35	Y35	Z35	X36	Y36	Z36	X37	Y37	Z37	X38	Y38	Z38	X39	Y39	Z39	X40	Y40	Z40	X41	Y41	Z41	X42	Y42	Z42	X43	Y43	Z43	X44	Y44	Z44	X45	Y45	Z45	X46	Y46	Z46	X47	Y47	Z47	X48	Y48	Z48	
1251	6.2550	477.079047	1438.627812	-56.935440	499.103049	1419.414508	-338.058983	451.914800	1481.637813	-203.009128	405.269887	1332.818015	-203.194168	491.688705	1124.497410	105.505598	688.515151	943.371875	-27.353132	514.794839	1144.320023	-552.087627	695.652491	937.415369	-441.722645	-108.022592	1203.844381	-246.664091	57.808022	1267.424129	-374.103428	48.350688	1259.192117	-85.550039	88.376282	1194.439465	-346.904747	70.110999	1201.543880	-99.260733	-86.513989	1245.153107	-192.630027	-70.961916	1256.428316	-299.229753	-4.620119	1114.070984	-49.437640	19.175105	1119.674211	-417.309867	101.427102	980.201446	-49.679495	160.913235	916.563541	-63.502323	183.295645	834.209564	-67.874315	189.996733	934.726350	-78.898022	243.324786	715.028017	-100.779432	222.928078	695.682980	-200.052574	216.140860	575.324105	-67.782215	222.980560	487.751859	-86.461938	191.301838	407.280759	-76.968446	233.665286	488.902526	-125.591092	164.538819	266.875524	-72.760187	100.343649	217.382844	-100.272917	391.680871	242.050539	-120.715730	322.363420	195.331970	-50.134176	116.763589	1052.416495	-418.484717	203.988832	1038.138198	-418.168262	218.851144	1070.167315	-408.409527	273.253268	981.985646	-416.770328	414.610093	875.795438	-384.540761	403.410755	858.197465	-283.365424	304.096464	774.117542	-400.159135	255.485572	705.267758	-382.565846	175.281394	665.021913	-388.379549	248.007547	693.268938	-325.072601	69.799468	590.505612	-389.270400	-2.823113	613.635694	-354.199130	170.965742	382.939347	-356.767924	101.232015	428.926145	-419.191222	-259.216770	970.850956	-233.381800	-75.802366	83.644849	-438.363221	-82.862465	79.563284	-40.788596	
1252	6.2600	478.658527	1438.338999	-58.381963	496.546992	1422.285366	-340.797434	452.641783	1483.118898	-203.795360	403.652105	1335.077261	-205.594136	492.614395	1124.682703	105.528069	688.836180	943.407136	-27.580036	513.753834	1144.933524	-551.037829	695.767859	937.806610	-441.522955	-107.227424	1204.772057	-243.297790	56.470157	1270.787685	-372.001341	51.037339	1258.734239	-83.489049	88.106743	1197.495437	-345.412941	72.856752	1200.614836	-98.526831	-84.008962	1245.107462	-189.917681	-70.915036	1258.085270	-295.516188	-2.834059	1112.896211	-48.293746	19.468775	1123.620261	-416.533308	99.572561	976.649800	-48.501883	157.208341	911.199389	-62.274970	177.185453	828.151045	-66.734438	186.728381	928.634606	-77.552730	235.458648	708.088314	-100.219028	213.228034	689.863847	-198.731060	207.734920	568.630331	-67.207133	214.797226	481.136684	-86.134260	182.750686	400.384172	-77.479594	225.729489	482.582801	-125.181389	156.710318	260.376287	-73.020395	92.712677	211.225030	-100.522182	384.168428	234.012512	-120.725021	314.358741	187.800789	-50.203086	118.526174	1058.285995	-418.084657	205.986110	1045.932229	-417.686109	220.167953	1078.047626	-407.434155	276.525456	991.164581	-416.728765	420.121759	887.039652	-384.709848	409.465016	868.931967	-283.627268	310.890490	784.198360	-400.169298	262.752181	714.865497	-382.976446	182.758477	673.709756	-388.332164	253.320427	701.427300	-322.957962	78.338187	598.151521	-389.535868	5.456107	621.483516	-354.360731	179.042038	390.200942	-356.175145	109.348946	436.505648	-419.038744	-259.113176	970.866787	-233.223728	-75.816541	83.679699	-438.388731	-82.877470	79.570225	-40.786263	
1253	6.2650	480.127097	1438.009893	-59.945699	493.815908	1425.077477	-343.547018	453.138419	1484.568662	-204.837538	401.894135	1337.326828	-208.011082	493.470015	1124.861900	105.569996	689.198682	943.473328	-27.602062	512.639935	1145.584167	-549.919613	696.043624	938.375815	-441.535688	-106.373423	1205.730076	-240.155329	54.879221	1274.846060	-372.244103	53.947294	1258.072326	-81.539858	87.872060	1200.288047	-344.137224	75.317982	1199.655727	-97.217393	-82.787700	1245.595054	-186.280435	-70.776148	1259.401816	-291.887925	-1.108664	1111.678520	-47.157048	19.757554	1127.388324	-415.727436	97.688882	973.067136	-47.301335	153.594379	906.197205	-60.827332	171.476264	822.480142	-65.475406	183.544920	922.704804	-76.223403	227.323122	701.591997	-99.201668	204.719725	684.048113	-197.689613	199.177664	562.487142	-66.586311	206.256890	475.023605	-85.823349	174.773111	394.382188	-76.989877	217.576118	476.396686	-124.673576	148.512906	254.244564	-73.441205	84.614245	205.498592	-100.833500	376.110718	226.247301	-121.183925	305.571233	180.659042	-50.535197	120.238449	1064.177813	-417.581004	208.037724	1054.000962	-417.331032	221.321100	1085.976390	-406.393465	279.626589	1000.708470	-416.666171	425.165591	898.734832	-385.595898	415.462822	879.826931	-283.759558	317.742830	794.117839	-399.890092	273.089598	719.839258	-373.020264	190.947027	682.384522	-388.862255	263.580073	712.625626	-326.166610	87.597905	605.515022	-390.246941	14.231247	628.963085	-354.410396	188.030951	397.022729	-355.608046	117.947489	443.512867	-418.840751	-259.203105	970.873658	-232.755925	-75.832492	83.680377	-438.371476	-82.853942	79.537566	-40.780517	
1254	6.2700	481.526025	1437.578296	-61.686336	490.933565	1427.885949	-346.219611	453.356773	1485.892664	-206.271412	400.265881	1339.347190	-210.614325	494.273668	1125.123932	105.635499	689.616938	943.547579	-27.346721	511.416813	1146.241794	-548.923748	696.558289	939.107784	-441.700988	-104.274534	1205.663722	-237.217929	54.365757	1277.093054	-369.421961	56.697174	1256.958946	-79.629187	87.749923	1202.757808	-342.719855	77.690941	1198.489127	-95.680911	-81.483424	1245.868978	-182.668255	-70.572452	1260.623859	-288.431313	0.664820	1110.329118	-46.079430	20.033563	1130.984417	-414.866882	95.908771	969.930487	-45.923272	150.128358	901.467196	-59.243519	165.876194	817.270045	-63.794251	180.398096	917.198663	-74.876289	219.371951	695.507267	-98.181466	197.213045	678.093375	-196.846957	190.759872	556.533014	-66.101675	197.827640	469.287972	-85.465600	165.630463	388.566167	-77.209663	209.432514	470.711867	-124.246544	139.692682	248.712416	-73.939394	76.099891	200.267131	-101.189598	367.611407	219.014449	-121.345375	296.786449	174.080533	-50.463035	121.899647	1070.146664	-417.104354	209.889497	1061.924133	-416.885601	222.449581	1094.085833	-405.673327	282.765121	1010.264330	-416.420077	430.727479	910.718073	-386.455971	422.145111	891.142755	-285.338596	324.961736	804.097037	-399.998555	278.638510	733.170659	-384.043487	199.318016	690.975486	-389.233545	285.262566	731.212372	-342.402351	97.240358	612.340069	-391.019347	23.532973	635.258830	-354.669444	196.382619	402.863702	-354.698301	126.807235	449.947851	-418.469563	-259.186152	970.976211	-232.635791	-75.844407	83.736405	-438.353640	-82.864811	79.545146	-40.787055	
